<?xml version="1.0" encoding="iso-8859-1"?>
<!-- Uploaded to: SVG Repo, www.svgrepo.com, Generator: SVG Repo Mixer Tools -->
<svg fill="#000000" height="800px" width="800px" version="1.1" id="Layer_1" xmlns="http://www.w3.org/2000/svg" xmlns:xlink="http://www.w3.org/1999/xlink" 
	 viewBox="0 0 512 512" xml:space="preserve">
<g>
	<g>
		<path d="M147.052,422.233c-14.102,0-25.574,11.473-25.574,25.574s11.473,25.574,25.574,25.574
			c14.102,0,25.574-11.473,25.574-25.574S161.154,422.233,147.052,422.233z"/>
	</g>
</g>
<g>
	<g>
		<path d="M364.433,422.233c-14.102,0-25.574,11.473-25.574,25.574s11.473,25.574,25.574,25.574
			c14.102,0,25.574-11.473,25.574-25.574S378.534,422.233,364.433,422.233z"/>
	</g>
</g>
<g>
	<g>
		<path d="M436.076,345.51L512,102.555H95.903v-6.394c0-31.729-25.813-57.542-57.542-57.542H0V76.98h38.361
			c10.576,0,19.181,8.604,19.181,19.181V364.69c0,31.73,25.813,57.542,57.542,57.542h31.968h217.381h70.329v-38.361H115.084
			c-10.576,0-19.181-8.603-19.181-19.181V345.51H436.076z M95.903,140.916h363.917l-19.98,63.936H95.903V140.916z M95.903,243.213
			h331.95l-19.98,63.936H95.903V243.213z"/>
	</g>
</g>
</svg>