<?xml version="1.0" encoding="iso-8859-1"?>
<!-- Uploaded to: SVG Repo, www.svgrepo.com, Generator: SVG Repo Mixer Tools -->
<svg fill="#000000" height="800px" width="800px" version="1.1" id="Layer_1" xmlns="http://www.w3.org/2000/svg" xmlns:xlink="http://www.w3.org/1999/xlink" 
	 viewBox="0 0 512 512" xml:space="preserve">
<g>
	<g>
		<path d="M435.2,127.462V15.269l-278.463,97.462H115.2v-19.2H76.8v19.2H57.6c-31.761,0-57.6,25.839-57.6,57.6v102.4
			c0,25.473,16.63,47.124,39.597,54.703L52.62,496.731h115.314l-12.8-166.4h1.604L435.2,427.793V315.599
			c43.766-8.919,76.8-47.708,76.8-94.068C512,175.171,478.966,136.383,435.2,127.462z M88.18,458.331l-9.846-128h38.286l9.846,128
			H88.18z M140.8,291.931H57.6c-10.587,0-19.2-8.613-19.2-19.2v-102.4c0-10.587,8.613-19.2,19.2-19.2h83.2V291.931z M396.8,373.669
			l-217.6-76.16V145.553l217.6-76.16V373.669z M435.2,275.828V167.233c22.346,7.926,38.4,29.267,38.4,54.298
			S457.546,267.903,435.2,275.828z"/>
	</g>
</g>
</svg>